IKResults
version=1
nRows=8
nColumns=40
inDegrees=yes

Units are S.I. units (second, meters, Newtons, ...)
If the header above contains a line with 'inDegrees', this indicates whether rotational values are in degrees (yes) or radians (no).

endheader
time	pelvis_tilt	pelvis_list	pelvis_rotation	pelvis_tx	pelvis_ty	pelvis_tz	hip_flexion_r	hip_adduction_r	hip_rotation_r	knee_angle_r	knee_angle_r_beta	ankle_angle_r	subtalar_angle_r	mtp_angle_r	hip_flexion_l	hip_adduction_l	hip_rotation_l	knee_angle_l	knee_angle_l_beta	ankle_angle_l	subtalar_angle_l	mtp_angle_l	lumbar_extension	lumbar_bending	lumbar_rotation	arm_flex_r	arm_add_r	arm_rot_r	elbow_flex_r	pro_sup_r	wrist_flex_r	wrist_dev_r	arm_flex_l	arm_add_l	arm_rot_l	elbow_flex_l	pro_sup_l	wrist_flex_l	wrist_dev_l
     22.31500000	     14.90164857	     -2.30574696	      4.62927130	     -0.84548569	      0.52153928	      0.28231802	     45.00000012	     -9.99999999	      0.00000000	     60.00014062	      1.04720001	     -4.99999985	      0.00000000	      0.00000000	     45.00000012	     -9.99999999	      0.00000000	     60.00014062	      1.04720001	     -4.99999985	      0.00000000	      0.00000000	    -29.53205744	      4.50057824	     -3.50817972	     -8.90692189	    -31.63485351	     -3.94419977	    122.10461009	     89.10897589	      0.00000000	      0.00000000	     -9.39475872	    -26.92525408	    -12.55469922	    119.53911640	     89.45051403	      0.00000000	      0.00000000
     22.32000000	     14.84006160	     -2.31939780	      4.65328009	     -0.84551244	      0.52139268	      0.28235218	     45.00000012	     -9.99999999	      0.00000000	     60.00014062	      1.04720001	     -4.99999985	      0.00000000	      0.00000000	     45.00000012	     -9.99999999	      0.00000000	     60.00014062	      1.04720001	     -4.99999985	      0.00000000	      0.00000000	    -29.46617862	      4.51963139	     -3.51724993	     -8.93744337	    -31.59912703	     -3.92890997	    122.10303357	     89.11181328	      0.00000000	      0.00000000	     -9.39531412	    -26.91092088	    -12.54835641	    119.54164183	     89.44941871	      0.00000000	      0.00000000
     22.32500000	     14.92431617	     -2.29791490	      4.61889635	     -0.84548183	      0.52156746	      0.28240660	     45.00000012	     -9.99999999	      0.00000000	     60.00014062	      1.04720001	     -4.99999985	      0.00000000	      0.00000000	     45.00000012	     -9.99999999	      0.00000000	     60.00014062	      1.04720001	     -4.99999985	      0.00000000	      0.00000000	    -29.56619998	      4.48869640	     -3.50606227	     -8.90986318	    -31.60673590	     -3.93713822	    122.11103312	     89.11043548	      0.00000000	      0.00000000	     -9.40094846	    -26.93765770	    -12.58093639	    119.55126916	     89.44909200	      0.00000000	      0.00000000
     22.33000000	     14.89196218	     -2.28219699	      4.62310666	     -0.84558139	      0.52149160	      0.28230315	     45.00000012	     -9.99999999	      0.00000000	     60.00014062	      1.04720001	     -4.99999985	      0.00000000	      0.00000000	     45.00000012	     -9.99999999	      0.00000000	     60.00014062	      1.04720001	     -4.99999985	      0.00000000	      0.00000000	    -29.54155271	      4.48478605	     -3.52102295	     -8.89542599	    -31.62141101	     -3.92782286	    122.10943264	     89.11017405	      0.00000000	      0.00000000	     -9.39807262	    -26.93232869	    -12.56197696	    119.55860356	     89.45098009	      0.00000000	      0.00000000
     22.33500000	     14.76682990	     -2.29043277	      4.63061631	     -0.84570963	      0.52116625	      0.28227930	     45.00000012	     -9.99999999	      0.00000000	     60.00014062	      1.04720001	     -4.99999985	      0.00000000	      0.00000000	     45.00000012	     -9.99999999	      0.00000000	     60.00014062	      1.04720001	     -4.99999985	      0.00000000	      0.00000000	    -29.41371910	      4.49576423	     -3.53296648	     -8.90357794	    -31.63895045	     -3.93591909	    122.12651754	     89.13313377	      0.00000000	      0.00000000	     -9.40888452	    -26.93699905	    -12.56352426	    119.54892303	     89.44140637	      0.00000000	      0.00000000
     22.34000000	     14.85032989	     -2.31538882	      4.64005246	     -0.84570444	      0.52135623	      0.28233503	     45.00000012	     -9.99999999	      0.00000000	     60.00014062	      1.04720001	     -4.99999985	      0.00000000	      0.00000000	     45.00000012	     -9.99999999	      0.00000000	     60.00014062	      1.04720001	     -4.99999985	      0.00000000	      0.00000000	    -29.51485445	      4.52209062	     -3.52109581	     -8.91349170	    -31.60382959	     -4.00579592	    122.12961813	     89.09485602	      0.00000000	      0.00000000	     -9.39768924	    -26.93506763	    -12.59539102	    119.59293542	     89.45267623	      0.00000000	      0.00000000
     22.34500000	     14.93860978	     -2.29202254	      4.61651937	     -0.84559247	      0.52155305	      0.28231333	     45.00000012	     -9.99999999	      0.00000000	     60.00014062	      1.04720001	     -4.99999985	      0.00000000	      0.00000000	     45.00000012	     -9.99999999	      0.00000000	     60.00014062	      1.04720001	     -4.99999985	      0.00000000	      0.00000000	    -29.60460729	      4.50430299	     -3.51654909	     -8.89467217	    -31.61383710	     -3.97847418	    122.16699293	     89.09825671	      0.00000000	      0.00000000	     -9.41192655	    -26.94413135	    -12.59989063	    119.55709618	     89.45075681	      0.00000000	      0.00000000
     22.35000000	     14.87512709	     -2.44102675	      4.50485583	     -0.84557144	      0.52136601	      0.28266507	     45.00000012	     -9.99999999	      0.00000000	     60.00014062	      1.04720001	     -4.99999985	      0.00000000	      0.00000000	     45.00000012	     -9.99999999	      0.00000000	     60.00014062	      1.04720001	     -4.99999985	      0.00000000	      0.00000000	    -29.54548051	      4.58830035	     -3.35970069	     -8.91885860	    -31.64255939	     -4.00952127	    122.19340835	     89.05090614	      0.00000000	      0.00000000	     -9.47802632	    -26.85624370	    -12.70172438	    119.63178901	     89.46829128	      0.00000000	      0.00000000
